inDegrees=no
num_controls=7
num_derivatives=13
num_iterations=267
num_multipliers=7
num_parameters=0
num_slacks=7
num_states=26
objective=6.599533
objective_accelerations=0.428399
objective_balance=0.048187
objective_effort=0.439558
objective_height=5.568422
objective_ligament=0.114967
solver_duration=2268.985778
status=Solve_Succeeded
success=true
DataType=double
version=3
OpenSimVersion=4.4-2022-07-23-0e9fedc
endheader
time	/jointset/ground_pelvis/pelvis_tilt/value	/jointset/ground_pelvis/pelvis_tx/value	/jointset/ground_pelvis/pelvis_ty/value	/jointset/hip_r/hip_flexion_r/value	/jointset/hip_r/hip_adduction_r/value	/jointset/hip_r/hip_rotation_r/value	/jointset/back/lumbar_extension/value	/jointset/patellofemoral_r/patellar_flexion_r/value	/jointset/knee_r/knee_flexion_r/value	/jointset/knee_r/knee_adduction_r/value	/jointset/knee_r/knee_rotation_r/value	/jointset/ankle_r/ankle_angle_r/value	/jointset/subtalar_r/subtalar_angle_r/value	/jointset/ground_pelvis/pelvis_tilt/speed	/jointset/ground_pelvis/pelvis_tx/speed	/jointset/ground_pelvis/pelvis_ty/speed	/jointset/hip_r/hip_flexion_r/speed	/jointset/hip_r/hip_adduction_r/speed	/jointset/hip_r/hip_rotation_r/speed	/jointset/back/lumbar_extension/speed	/jointset/patellofemoral_r/patellar_flexion_r/speed	/jointset/knee_r/knee_flexion_r/speed	/jointset/knee_r/knee_adduction_r/speed	/jointset/knee_r/knee_rotation_r/speed	/jointset/ankle_r/ankle_angle_r/speed	/jointset/subtalar_r/subtalar_angle_r/speed	/forceset/tau_hip_flexion_r	/forceset/tau_hip_adduction_r	/forceset/tau_hip_rotation_r	/forceset/tau_knee_flexion_r	/forceset/tau_ankle_angle_r	/forceset/tau_subtalar_angle_r	/forceset/tau_lumbar_extension	lambda_cid13_p0	lambda_cid14_p0	lambda_cid14_p1	lambda_cid14_p2	lambda_cid14_p3	lambda_cid14_p4	lambda_cid14_p5	/jointset/ground_pelvis/pelvis_tilt/accel	/jointset/ground_pelvis/pelvis_tx/accel	/jointset/ground_pelvis/pelvis_ty/accel	/jointset/hip_r/hip_flexion_r/accel	/jointset/hip_r/hip_adduction_r/accel	/jointset/hip_r/hip_rotation_r/accel	/jointset/back/lumbar_extension/accel	/jointset/patellofemoral_r/patellar_flexion_r/accel	/jointset/knee_r/knee_flexion_r/accel	/jointset/knee_r/knee_adduction_r/accel	/jointset/knee_r/knee_rotation_r/accel	/jointset/ankle_r/ankle_angle_r/accel	/jointset/subtalar_r/subtalar_angle_r/accel	gamma_cid13_p0	gamma_cid14_p0	gamma_cid14_p1	gamma_cid14_p2	gamma_cid14_p3	gamma_cid14_p4	gamma_cid14_p5
1.5	-0.1230844531588823	0.05747823687100147	0.867403345312214	0.6937167203869378	-0.2265666041230015	-0.1433878265676624	-0.2874420931878909	0.6552920854945389	0.655292085494491	0.03731666074769815	0.1745321645710388	0.2554797747115036	0.05917523391167202	0.2772129924828707	0.124907378382533	0.3363690964591544	-1.511507919824963	0.02082261592026947	-0.2806326741353684	0.7025450059682552	-1.753077602679583	-1.753077602679568	0.2751984291865756	-2.858163457129192e-05	-0.6069850194053286	-0.1467812407581739	-0.07797879770215903	-0.01815448409457249	0.00723577877436755	-0.3174412891681742	0.051855672520999	-0.008285649880192487	0.1319517201878392	-33.8100519670063	-24.92545467251707	-3.732937831122478	-3.776332849612653	3.12586267434914	-663.3504618733199	59.66052473057097	0.05580473031089651	0.3037671856395633	-0.4295450711813357	-0.8271111780706771	-0.03303209185877495	-0.5367754359263581	1.343919676755261	-1.128629296478492	-1.128629296478491	0.4503869363999639	0.002820163258018082	-0.4884250357001916	-0.06942844512122524	1.175068419193641e-07	1.577614745203839e-07	-5.753131088488942e-07	1.251104150678854e-06	-2.272414732979136e-08	1.905299032670106e-07	-8.713312448508565e-07
1.51	-0.1203099456845754	0.0587423048890758	0.870744794802351	0.6785622915641248	-0.2263608356276393	-0.1462198822921541	-0.2803504396256133	0.6377073376373108	0.6377073376372987	0.04009314927747125	0.1745321027597318	0.2493860634779823	0.05770304431545076	0.2776506769910287	0.1278843224760476	0.331848001914138	-1.519162487324349	0.02032892305190069	-0.2857607276124454	0.7156772518312752	-1.763615731259657	-1.763615731259647	0.2800859335746782	7.157098677449163e-06	-0.6116725537921505	-0.1476327869250925	-0.07215829148813997	-0.01961846470025699	0.006555322764936027	-0.3143052825858962	0.05580433172229676	-0.009215688780170999	0.1265691666163814	-34.73059374142559	-23.53077156894376	-3.811230769239456	-3.856856171082943	2.698448530049029	-660.0290909762957	59.50195039658089	0.03209312913733027	0.2913685909594353	-0.4742692982613211	-0.7023052254294271	-0.05769678905741778	-0.4979428780821163	1.281608842882212	-0.9779953723975304	-0.9779953723982791	0.5059135627450216	0.002831601811218614	-0.4462030196897723	-0.08937843898117984	1.269386588597254e-07	1.673026672078877e-07	-6.387811513631457e-07	1.327988321252398e-06	-2.09806744477066e-08	2.043570282160026e-07	-9.508573617995503e-07
1.52	-0.1175321928015653	0.06003548446203595	0.8740388578166181	0.6633377819284119	-0.2261600358419055	-0.1491026430663145	-0.2731307172443431	0.6200248903475633	0.6200248903475754	0.04291810912567486	0.174532174510423	0.2432480198246897	0.05622306711025962	0.2778620742219266	0.1307296893596984	0.3268918012851601	-1.525524082406009	0.01982887399427061	-0.2907736840688655	0.7281587697665531	-1.772617489184756	-1.772617489184751	0.2848926928719666	-1.869229956386893e-06	-0.6158515033596376	-0.1483387625521716	-0.06633778527412483	-0.021082445305937	0.005874866755399801	-0.3111692760036161	0.05975299092359676	-0.01014572768014003	0.1211866130449192	-35.61966032514854	-22.14432902052664	-3.88673380454459	-3.942660097284759	2.265133981095	-656.8481117383502	59.42133948834362	0.01054727485900826	0.2774517436667005	-0.5165662879736318	-0.5685166945253993	-0.03430332971100594	-0.513756031795	1.213774091206947	-0.8213551654833463	-0.8213551654833515	0.4342379182370621	-0.006132849118481162	-0.3867080718334112	-0.04031433715332085	1.370774841845333e-07	1.71760452448552e-07	-7.445844752156956e-07	1.371129524357948e-06	-1.236722067053462e-08	2.140875692862342e-07	-1.03737074087509e-06
1.53	-0.1147534913453532	0.06135645095245854	0.8772812380826999	0.6480561514070158	-0.225964322637429	-0.1520352903431174	-0.2657895374977148	0.6022601809276649	0.6022601809276966	0.04579063301919638	0.1745322536384298	0.2370707813229216	0.05473670882808382	0.2778374500754299	0.1334403292263219	0.3215171349638625	-1.53058000336994	0.01931300219923394	-0.2957386245146753	0.7399565727562467	-1.780057915980975	-1.780057915980976	0.2895923579965848	1.165908778182905e-05	-0.6195037267908882	-0.1489063855746719	-0.06028899574143304	-0.02292990811549954	0.005214109590693213	-0.3084270165593699	0.06425313741929772	-0.01114603377113594	0.1156475172941983	-36.47259427433059	-20.59085299565602	-3.964717533824308	-4.026685460947707	1.72098732999341	-653.7798793174537	59.41688892600285	-0.01506599414701012	0.2643805959598454	-0.5579398803960425	-0.4408068569118056	-0.06020707621653113	-0.4850534096332202	1.14469238264067	-0.6654453741616385	-0.6654453741626407	0.4848159681631471	0.004431755227786632	-0.3405885420598222	-0.06100063940135605	1.479675059178158e-07	1.708171172769493e-07	-8.953690354901872e-07	1.378418824528756e-06	3.54558780766745e-09	2.194654899852832e-07	-1.131308085960404e-06
1.54	-0.1119762558775479	0.06270382593910759	0.8804678670703312	0.6327306262640674	-0.2257737637452687	-0.1550170250961089	-0.2583339979252304	0.5844290554523146	0.5844290554523569	0.04870955059568375	0.1745323352661973	0.2308597987741833	0.05324547144476232	0.2775688765391899	0.1360113886049928	0.3157415455950525	-1.534303006717268	0.01879801153153648	-0.3005911793068497	0.7510307349375275	-1.785900700276013	-1.785900700276021	0.2941714294647643	-1.369274167786381e-06	-0.6226003127536982	-0.1493145827812918	-0.05424020620874612	-0.02477737092505796	0.004553352425917014	-0.3056847571151225	0.0687532839150003	-0.01214633986212396	0.1101084215434722	-37.28472636932719	-19.04631966521352	-4.040091922798697	-4.115896769449814	1.172308636892969	-650.8635789405863	59.49452414525321	-0.03824260308947538	0.249535646076066	-0.5967508974761165	-0.3019331712049639	-0.03412710424313285	-0.4912789010679333	1.069045929524491	-0.5018266652472125	-0.5018266652472169	0.4101191869492597	-0.01144418505606436	-0.2755805781454637	-0.008429173977236129	1.588415093697859e-07	1.70289649063005e-07	-1.038627032545172e-06	1.387962006995681e-06	1.850027084051184e-08	2.245960000199693e-07	-1.220205533653313e-06
